PathFileType	4	(X/Y/Z)	C:/Users/opensim2020/Desktop/walking_exp_matlab/subject03_walking13_straight_03.trc																																																																																																																																								
DataRate	CameraRate	NumFrames	NumMarkers	Units	OrigDataRate	OrigDataStartFrame	OrigNumFrames																																																																																																																																				
100	100	7	46	mm	100	1731	209																																																																																																																																				
Frame#	Time	LFHD			RFHD			LBHD			RBHD			C7			T10			CLAV			STRN			RBAK			LSHO			LUPA			LELB			LFRM			LWRA			LWRB			LFIN			RSHO			RUPA			RELB			RFRM			RWRA			RWRB			RFIN			LASI			RASI			LPSI			RPSI			LTHI			LKNE			LTIB			LANK			LHEE			LTOE			RTHI			RKNE			RTIB			RANK			RHEE			RTOE			*39			*40			*41			*42			*43			*44			*45		
		X1	Y1	Z1	X2	Y2	Z2	X3	Y3	Z3	X4	Y4	Z4	X5	Y5	Z5	X6	Y6	Z6	X7	Y7	Z7	X8	Y8	Z8	X9	Y9	Z9	X10	Y10	Z10	X11	Y11	Z11	X12	Y12	Z12	X13	Y13	Z13	X14	Y14	Z14	X15	Y15	Z15	X16	Y16	Z16	X17	Y17	Z17	X18	Y18	Z18	X19	Y19	Z19	X20	Y20	Z20	X21	Y21	Z21	X22	Y22	Z22	X23	Y23	Z23	X24	Y24	Z24	X25	Y25	Z25	X26	Y26	Z26	X27	Y27	Z27	X28	Y28	Z28	X29	Y29	Z29	X30	Y30	Z30	X31	Y31	Z31	X32	Y32	Z32	X33	Y33	Z33	X34	Y34	Z34	X35	Y35	Z35	X36	Y36	Z36	X37	Y37	Z37	X38	Y38	Z38	X39	Y39	Z39	X40	Y40	Z40	X41	Y41	Z41	X42	Y42	Z42	X43	Y43	Z43	X44	Y44	Z44	X45	Y45	Z45	X46	Y46	Z46
																																																																																																																																											
105	1.04	67.2038	1606.37769	-1031.89075	43.37954	1599.67529	-900.82288	-47.83369	1539.66724	-1053.91614	-66.61931	1532.84863	-924.67096	-64.31662	1384.54968	-996.26825	-99.73484	1075.78088	-1005.52301	60.0066	1310.89392	-994.24542	105.18565	1145.87195	-1006.77014	-120.65308	1209.09375	-912.96338	13.96005	1354.87854	-1149.59644	31.53198	1165.79797	-1229.19104	68.9995	1051.55481	-1240.84302	165.47153	975.00391	-1220.83057	256.66412	917.13489	-1169.40161	240.21103	888.91949	-1213.51025	314.51373	858.78314	-1194.94214	8.30826	1325.55542	-834.23132	-39.41872	1104.44287	-777.414	-55.30773	991.01501	-771.57855	-88.68031	857.45453	-773.13361	-97.33025	757.53815	-812.06567	-126.6809	763.97101	-765.23212	-144.84985	689.81799	-783.24493	59.25127	902.94202	-1122.61963	68.97078	915.94019	-884.71991	-99.13503	930.38171	-1064.34778	-94.04802	941.05835	-916.15485	-45.71482	610.66473	-1166.11816	-87.46469	434.51996	-1144.23035	-246.36891	306.12027	-1140.62122	-391.44727	156.90392	-1097.79834	-439.61597	161.58105	-1059.65833	-316.11096	26.69148	-1063.77954	93.53349	632.02588	-837.94043	179.63849	479.16074	-886.76056	176.53929	282.9025	-879.57574	176.18454	67.84665	-927.04431	128.03651	36.11759	-975.04053	315.5488	32.88104	-952.84686	-33.93777	1648.07166	-993.60101	NaN	NaN	NaN	NaN	NaN	NaN	NaN	NaN	NaN	NaN	NaN	NaN	NaN	NaN	NaN	NaN	NaN	NaN
106	1.05	81.14163	1607.33752	-1031.25049	57.58459	1600.54114	-900.14801	-33.88402	1540.62048	-1053.12598	-52.49403	1533.78113	-923.79663	-49.67295	1385.43372	-995.17957	-84.88053	1076.42285	-1004.15546	74.51675	1311.92651	-993.53259	120.17549	1146.96045	-1005.91766	-105.38165	1209.91174	-911.15411	28.07427	1355.62683	-1148.7804	43.54916	1166.20178	-1228.41284	80.0524	1051.78479	-1240.21985	176.58266	975.39703	-1220.12524	267.77008	918.08344	-1168.93079	251.12825	889.15363	-1212.47668	326.06631	860.62579	-1194.63391	23.48018	1326.79614	-833.39276	-23.62257	1105.67175	-776.44446	-39.08476	992.11853	-770.67841	-71.84443	858.41772	-772.34229	-80.38591	758.52405	-811.56769	-109.49626	764.80664	-764.48181	-128.75523	690.74902	-783.18744	74.61477	903.49408	-1121.13794	85.15971	917.76276	-883.60706	-83.6627	930.38214	-1063.19202	-77.89737	942.31641	-915.1828	-24.56061	609.00104	-1166.30505	-62.35677	432.18887	-1145.91858	-224.43639	308.61551	-1140.90527	-373.62985	164.37564	-1097.77869	-419.81482	174.21442	-1058.20447	-314.25842	26.72321	-1063.23926	109.51696	632.78693	-837.47083	194.56445	479.3895	-887.31158	185.60835	282.71091	-880.80579	177.14122	67.98963	-928.03235	128.45073	36.35936	-975.14618	316.3363	32.45992	-953.27338	-20.42617	1648.51636	-993.4444	NaN	NaN	NaN	NaN	NaN	NaN	NaN	NaN	NaN	NaN	NaN	NaN	NaN	NaN	NaN	NaN	NaN	NaN
107	1.06	95.08823	1608.24011	-1030.73169	71.7261	1601.38098	-899.53558	-19.96413	1541.5531	-1052.41736	-38.33962	1534.64392	-923.06708	-35.31123	1386.20667	-994.25708	-69.90179	1077.02344	-1002.65442	88.96734	1312.91003	-992.96423	135.05327	1148.16138	-1005.3407	-90.17966	1210.85364	-909.36633	41.71884	1356.41443	-1147.96521	55.40081	1166.83765	-1227.61548	90.90424	1052.18323	-1239.34387	187.20782	975.60785	-1219.45374	278.40732	918.42554	-1168.5426	261.57663	889.05084	-1211.7489	336.79059	861.33362	-1194.48755	38.55368	1328.31982	-832.67401	-7.74686	1107.09497	-775.37292	-22.58706	993.47974	-769.74347	-54.48675	859.6283	-771.68695	-63.59006	759.1004	-810.85168	-91.49642	765.698	-763.53247	-111.48207	691.68188	-782.81964	89.60796	904.17096	-1119.74023	100.99694	919.69067	-882.63745	-68.59861	930.4256	-1062.04187	-62.15191	943.72247	-914.06567	-3.2957	607.22748	-1166.33911	-36.49477	429.97171	-1146.5752	-200.75284	310.70895	-1140.49353	-353.20377	171.036	-1098.27661	-398.52393	186.80156	-1058.58838	-308.2793	29.78857	-1063.55945	125.13268	633.71594	-837.086	206.96651	478.5235	-887.13586	193.07411	282.07013	-880.84723	177.78096	68.0657	-928.18939	128.33676	36.69969	-975.4743	316.63123	32.26805	-953.92511	NaN	NaN	NaN	NaN	NaN	NaN	NaN	NaN	NaN	NaN	NaN	NaN	NaN	NaN	NaN	NaN	NaN	NaN	NaN	NaN	NaN
108	1.07	109.0343	1609.25122	-1030.22693	85.85242	1602.16504	-899.138	-6.06917	1542.55322	-1051.7948	-24.28304	1535.5675	-922.42572	-21.34724	1386.93396	-993.45215	-55.12889	1077.77502	-1000.99622	103.34103	1313.96338	-992.50964	149.614	1149.3219	-1005.04578	-75.00138	1211.8241	-907.79718	55.06241	1357.3689	-1147.06384	67.08248	1167.54456	-1226.57629	101.52478	1052.69763	-1238.22729	197.57893	975.49768	-1218.82141	288.625	918.05756	-1168.24194	271.4454	888.47461	-1211.17151	346.68414	860.86792	-1194.43884	53.65696	1329.86963	-831.9845	8.14313	1108.66113	-774.26892	-5.97627	994.95642	-768.6543	-36.56657	860.86121	-770.53955	-44.88228	760.33795	-809.76544	-72.83031	766.66669	-762.45496	-92.90118	692.5177	-782.16589	104.16796	905.0191	-1118.53052	116.61569	921.54395	-881.89941	-54.14634	930.68958	-1060.75269	-46.98299	945.33221	-912.70544	17.65041	605.33649	-1166.0752	-10.1184	427.80075	-1146.84119	-175.82614	312.33667	-1140.50793	-332.12402	177.87752	-1098.5332	-376.42059	197.94032	-1059.22571	-296.48511	35.48498	-1065.25842	139.7849	634.92859	-836.18298	217.76271	477.29559	-886.58795	198.63643	281.43027	-880.70911	178.00005	68.16707	-928.40906	128.32912	36.79688	-975.49548	316.74432	32.09087	-954.17938	8.4177	1650.12769	-991.2475	NaN	NaN	NaN	NaN	NaN	NaN	NaN	NaN	NaN	NaN	NaN	NaN	NaN	NaN	NaN	NaN	NaN	NaN
109	1.08	122.94357	1610.52283	-1029.74463	99.90226	1603.33081	-898.62988	7.77799	1543.84656	-1051.26685	-10.21393	1536.69324	-921.87103	-7.71332	1387.83459	-992.5849	-40.51491	1078.79675	-999.32483	117.56137	1315.25989	-992.23877	163.76459	1150.67065	-1004.9812	-60.02834	1212.98035	-906.28448	68.00887	1358.45081	-1146.36548	78.74866	1168.43933	-1225.63379	112.1106	1053.23047	-1237.01685	207.54572	975.14893	-1218.21033	298.4845	917.05841	-1168.17053	280.75879	887.51495	-1210.8407	355.80713	859.25757	-1194.58215	68.77636	1331.58557	-831.41644	24.23855	1110.33606	-773.1521	10.84132	996.54578	-767.40564	-18.34873	862.16058	-768.9776	-24.37455	762.03943	-808.44159	-53.51217	767.54706	-761.22595	-73.38151	693.35211	-781.24255	119.21787	906.16687	-1117.21008	131.96655	923.26837	-881.40698	-40.10691	931.13385	-1059.37537	-31.74021	946.9375	-911.46436	38.08352	603.73663	-1165.70532	16.6827	425.42188	-1146.62122	-149.64774	313.2666	-1141.08081	-310.63492	185.85327	-1097.49036	-354.45227	206.98853	-1057.43555	-278.34454	41.92055	-1068.75073	152.88834	636.0481	-835.08374	227.15694	475.98788	-885.68579	203.37042	280.86002	-880.13269	177.87572	68.32484	-928.64703	128.34674	37.03228	-975.44434	316.83511	31.96822	-954.27197	22.31992	1651.17578	-990.80725	NaN	NaN	NaN	NaN	NaN	NaN	NaN	NaN	NaN	NaN	NaN	NaN	NaN	NaN	NaN	NaN	NaN	NaN
110	1.09	136.83205	1612.16113	-1029.34131	113.9988	1604.79822	-898.19775	21.64039	1545.54199	-1050.60461	3.82057	1538.19983	-921.33099	5.80046	1389.05066	-991.55035	-26.01662	1080.13135	-997.77478	131.4897	1316.83044	-992.08936	177.64345	1152.16943	-1005.1037	-45.20793	1214.49182	-904.77338	80.64102	1359.83484	-1145.8877	90.22707	1169.30383	-1224.60925	122.52754	1053.7384	-1235.76123	217.20589	974.4751	-1217.69836	307.83014	915.25208	-1168.13672	289.52676	886.15094	-1210.70032	364.23276	856.60565	-1194.79468	83.93656	1333.3645	-830.92053	40.57777	1112.01501	-771.92932	27.87367	998.1264	-765.94238	0.35171	863.39435	-767.89465	-5.58562	762.75867	-807.15125	-33.70472	768.41577	-759.95209	-52.7509	694.06403	-779.93054	132.56277	907.10913	-1117.21228	147.15425	924.90521	-881.16443	-26.41427	931.65173	-1058.07483	-16.74725	948.77942	-910.24951	58.03891	602.96948	-1165.40747	44.1659	423.69189	-1146.48059	-122.67251	314.54675	-1140.90613	-287.90427	194.08099	-1095.4408	-331.41449	213.43494	-1054.39355	-255.28658	48.27674	-1072.16797	164.1461	636.78461	-834.10431	234.95073	474.72739	-884.35925	207.38896	280.31781	-879.0636	178.04677	68.26739	-928.74817	128.48709	37.21273	-975.20624	316.89209	31.83167	-954.1955	NaN	NaN	NaN	NaN	NaN	NaN	NaN	NaN	NaN	NaN	NaN	NaN	NaN	NaN	NaN	NaN	NaN	NaN	NaN	NaN	NaN
111	1.1	150.66277	1613.96094	-1028.99744	128.11093	1606.55273	-897.86182	35.38131	1547.45801	-1050.13354	17.84679	1540.05078	-920.87079	19.40202	1390.69446	-990.53979	-11.88706	1081.83435	-996.45508	145.16318	1318.67676	-992.12994	191.52832	1153.8866	-1005.51465	-30.48703	1216.22925	-903.10376	93.12016	1361.37329	-1145.54932	101.58672	1170.35632	-1223.62415	132.86398	1054.36365	-1234.59216	226.61815	973.65656	-1217.15381	316.84314	912.95074	-1168.28735	297.71817	884.3465	-1210.70215	371.80289	852.96143	-1195.11975	99.21454	1335.19507	-830.56256	57.21402	1113.71021	-770.69922	45.18035	999.80792	-764.34753	19.56505	864.72937	-766.09235	14.99189	764.0116	-805.66638	-13.38985	769.30505	-758.53308	-31.15075	694.69666	-778.44666	146.0742	908.69452	-1117.26746	162.19254	926.56665	-881.16302	-12.84574	932.32648	-1056.83704	-1.97293	950.91974	-909.10004	77.45202	603.52429	-1165.08179	71.89034	423.21246	-1146.57727	-95.37824	316.62973	-1139.73523	-262.66061	199.77472	-1093.62598	-306.41556	218.19771	-1051.87488	-229.02634	53.64495	-1075.19202	174.25226	637.20947	-833.33447	241.67021	473.55515	-882.96228	210.88638	279.8446	-878.23499	178.1432	68.33701	-928.58832	128.51154	37.60815	-975.15369	316.92435	31.69912	-954.07031	49.18129	1655.67065	-989.3006	NaN	NaN	NaN	NaN	NaN	NaN	NaN	NaN	NaN	NaN	NaN	NaN	NaN	NaN	NaN	NaN	NaN	NaN
